<svg width="55" height="64" viewBox="0 0 55 64" fill="none" xmlns="http://www.w3.org/2000/svg">
<path d="M55 6.4H50.7692V2.98773C50.7692 1.344 49.5444 0 48.051 0H34.4448C32.9556 0 31.7308 1.344 31.7308 2.98773V6.4H6.28375L0 19.2H4.36298V27.7333H3.65644L0.132212 32L3.65644 36.2667H4.42856V38.5579C4.42856 39.1371 4.87173 39.6053 5.42067 39.6053C7.06115 39.6053 8.39596 41.0176 8.39596 42.7531C8.39596 44.4885 7.06115 45.9008 5.42067 45.9008C3.78019 45.9008 2.44538 44.4885 2.44538 42.7531C2.44538 42.1739 2.00115 41.7056 1.45327 41.7056C0.904327 41.7056 0.461154 42.1739 0.461154 42.7531C0.463269 45.648 2.68654 48 5.42067 48C8.15375 48 10.3791 45.648 10.3791 42.7541C10.3791 40.2208 8.67308 38.1003 6.41279 37.6149V36.2667H7.18385L10.7091 32L7.18385 27.7333H6.47837V19.2H31.7308V26.8789C31.7308 28.2955 32.6414 29.4827 33.8462 29.7877V64H36.6226V57.6L45.8774 60.8L36.6226 64H48.6538V29.7867C49.8596 29.4827 50.7692 28.2955 50.7692 26.8789V19.2H55V16H52.8021L55 11.792V6.4ZM4.91086 16L7.38163 10.8811L10.0534 16H4.91086ZM9.58798 9.6H13.9806L11.7848 13.808L9.58798 9.6ZM13.5162 16L15.7131 11.792L17.911 16H13.5162ZM17.4456 9.6H21.8382L19.6413 13.808L17.4456 9.6ZM21.3749 16L23.5707 11.792L25.7664 16H21.3749ZM25.3032 9.6H29.6958L27.5 13.808L25.3032 9.6ZM31.7308 16H29.2314L31.4272 11.792L31.7308 12.3733V16ZM45.8774 57.6L36.6226 54.4L45.8774 51.2V57.6ZM36.6226 51.2V44.8L45.8774 48.0021L36.6226 51.2ZM45.8774 44.8L36.6226 41.6L45.8774 38.4V44.8ZM36.6226 38.4V32.0021L45.8774 35.2L36.6226 38.4ZM45.8774 32.0021L39.7058 29.8667H45.8774V32.0021ZM47.4639 14.1312C47.4639 15.1584 46.7489 16 45.8774 16H36.3561C35.4845 16 34.7716 15.1584 34.7716 14.1312V5.0752C34.7716 4.0416 35.4845 3.2 36.3561 3.2H45.8774C46.7489 3.2 47.4639 4.0416 47.4639 5.0752V14.1312ZM51.0707 13.808L50.7692 13.2299V9.6H53.2664L51.0707 13.808Z" fill="black"/>
</svg>
