<svg width="38" height="38" viewBox="0 0 38 38" fill="none" xmlns="http://www.w3.org/2000/svg">
<path d="M19 0C8.50662 0 0 8.50662 0 19C0 29.4934 8.50662 38 19 38C29.4934 38 38 29.4934 38 19C38 8.50662 29.4934 0 19 0ZM19 33.8696C10.7866 33.8696 4.13044 27.2113 4.13044 19C4.13044 10.7887 10.7866 4.13044 19 4.13044C27.2134 4.13044 33.8696 10.7887 33.8696 19C33.8696 27.2113 27.2134 33.8696 19 33.8696ZM22.7174 11.0489H15.2826V19.4956H10.6359L19 27.3641L27.3641 19.4956H22.7174L22.7174 11.0489Z" fill="white"/>
</svg>
