<svg width="13" height="18" viewBox="0 0 13 18" fill="none" xmlns="http://www.w3.org/2000/svg">
<path d="M12.6256 9.74108C12.7411 9.6585 12.8355 9.54802 12.9007 9.41913C12.9659 9.29024 13 9.14682 13 9.00122C13 8.85562 12.9659 8.71219 12.9007 8.58331C12.8355 8.45442 12.7411 8.34393 12.6256 8.26136L1.35971 0.160727C1.22977 0.0669618 1.07757 0.0119768 0.919649 0.0017439C0.76173 -0.00848897 0.604132 0.0264222 0.463976 0.102685C0.32382 0.178948 0.206468 0.293646 0.124669 0.434316C0.0428694 0.574987 -0.000248148 0.73625 1.07429e-06 0.900585L1.07429e-06 17.1019C0.000653117 17.2658 0.0443251 17.4265 0.12632 17.5666C0.208315 17.7067 0.325531 17.8209 0.465363 17.897C0.605195 17.9731 0.762351 18.0081 0.919931 17.9984C1.07751 17.9887 1.22955 17.9345 1.35971 17.8417L12.6256 9.74108Z" fill="black"/>
</svg>
